# Blender v2.79 (sub 0) OBJ File: 'ONE_TIPS.blend'
# www.blender.org
mtllib abdominal_gastropexy.mtl
o abdominal_gastropexy_abdominal_wall.006
v -19.363499 -1.037129 -23.052786
v -8.576157 -1.037129 -23.052786
v -0.945030 -0.826883 -23.236223
v 12.998526 5.530441 -24.139275
v 23.785866 5.163389 -24.078552
v -19.319170 2.308735 -10.849123
v -8.531826 2.308735 -10.849123
v 0.033954 3.148761 -10.988091
v 13.042854 8.876307 -11.935612
v 23.830194 8.509254 -11.874889
v -19.319170 4.069381 -0.206430
v -8.531826 5.082477 -0.374029
v -0.106286 6.745445 -0.685896
v 13.042854 10.636951 -1.292919
v 23.830194 10.269899 -1.232197
v -19.319170 -0.190464 13.681635
v -8.531826 3.203225 13.047122
v 2.255514 3.588539 13.056966
v 13.042854 6.380129 12.595146
v 23.499626 6.412098 12.529772
v -18.033590 -1.054591 13.926650
v -8.531826 1.227602 16.873148
v 2.255514 1.836597 16.873150
v 13.042854 4.654245 15.786656
v 24.103771 4.913414 13.081451
v -4.308554 -0.919553 -23.155373
v -3.741530 2.778508 -10.926839
v -3.819959 6.012468 -0.548436
v -2.499155 3.486912 13.052628
v -2.499155 1.545789 16.873148
v -5.160682 2.639335 -10.903815
v -5.215876 5.736953 -0.496767
v -4.286367 3.367394 13.050996
v -4.286367 1.408964 16.873148
v -5.572855 -0.954386 -23.124981
v -6.570515 2.501076 -10.880942
v -6.602626 5.463247 -0.445437
v -6.061845 3.238732 13.049376
v -6.061845 1.296986 16.873150
v -6.828855 -0.988990 -23.094790
v -19.319170 4.648031 3.291376
v -8.531826 6.588726 2.970322
v 0.669939 7.685592 2.764188
v 13.042854 11.215602 2.204887
v 23.830194 10.848549 2.265610
v -3.385866 7.202133 2.855045
v -4.910386 7.020408 2.889196
v -6.424895 6.839875 2.923124
v -8.531826 7.178486 5.367393
v 1.159562 7.918269 5.227951
v 13.042854 11.220256 4.698753
v 23.830194 10.853203 4.759476
v -3.112051 7.592198 5.289412
v -4.717690 7.469635 5.312514
v -6.312786 7.347874 5.335464
v -19.319170 4.652685 5.785242
v -8.531826 6.863620 7.541495
v 1.584605 7.312795 7.459951
v 13.042854 10.416835 6.956884
v 23.830194 10.049783 7.017607
v -2.874351 7.123354 7.495892
v -4.550411 7.051940 7.509402
v -6.215463 6.977973 7.522824
v -19.319170 3.849264 8.043373
v -8.531826 5.334157 10.608124
v 1.920059 5.726974 10.572273
v 13.042854 8.674789 10.089828
v 23.830194 8.307737 10.150552
v -2.686753 5.609268 10.588074
v -4.418389 5.486458 10.594013
v -6.138653 5.427432 10.599915
v -19.319170 2.107219 11.176318
v -15.754532 -5.448758 14.398821
v -2.133416 -2.793952 16.515175
v 8.653925 -2.622872 16.515175
v 19.441265 0.178968 15.428683
v 25.493187 1.444843 12.877391
v 3.899256 -2.622872 16.515175
v 2.112043 -2.623408 16.515173
v 0.336566 -2.668795 16.515175
v -17.286167 -11.223781 12.790142
v -6.498826 -9.379176 12.790144
v 4.288515 -9.379176 12.790144
v 15.075857 -6.577335 11.703653
v 25.863195 -5.023262 11.764375
v -0.466153 -9.379176 12.790144
v -2.253366 -9.379176 12.790144
v -4.028843 -9.379176 12.790144
v -18.421530 -10.194588 -14.741936
v -7.634187 -10.194588 -14.741936
v -0.003061 -9.984341 -14.925374
v 14.510448 -7.040821 -14.954068
v 24.727835 -3.994068 -15.767703
v -3.366584 -10.077010 -14.844522
v -4.630885 -10.111842 -14.814133
v -5.886885 -10.146447 -14.783938
v 23.786745 4.718117 -19.674866
v 23.830194 8.509254 -11.874889
v 23.830194 10.269899 -1.232197
v 24.445156 6.639630 12.170280
v 23.093477 4.150614 13.431127
v 23.830194 10.848549 2.265610
v 23.830194 10.853203 4.759476
v 23.830194 10.049783 7.017607
v 23.546141 8.627260 10.177228
v 24.735178 1.289867 12.227595
v 25.863195 -5.023262 11.764375
v 24.727835 -3.994068 -15.767703
vt 0.269616 0.001069
vt 0.051248 0.217495
vt 0.052219 0.000098
vt 0.424228 0.000119
vt 0.353232 0.219094
vt 0.346922 0.000594
vt 0.735804 0.016930
vt 0.439237 0.220447
vt 0.943331 0.248883
vt 0.724079 0.235811
vt 0.267227 0.217741
vt 0.052339 0.434764
vt 0.352871 0.435662
vt 0.439115 0.438286
vt 0.711246 0.451682
vt 0.057070 0.636624
vt 0.275985 0.641028
vt 0.057385 0.650082
vt 0.478471 0.646792
vt 0.378540 0.650860
vt 0.376936 0.637410
vt 0.700042 0.658340
vt 0.481094 0.660693
vt 0.700743 0.645424
vt 0.906409 0.687959
vt 0.000098 0.917874
vt 0.420054 0.999902
vt 0.316673 0.981692
vt 0.656261 0.915785
vt 0.327263 0.645944
vt 0.264983 0.972587
vt 0.326168 0.632719
vt 0.309749 0.434349
vt 0.310230 0.218418
vt 0.308269 0.000831
vt 0.288729 0.218079
vt 0.288943 0.000950
vt 0.288188 0.433693
vt 0.300784 0.630374
vt 0.301624 0.643486
vt 0.239138 0.968035
vt 0.213293 0.963482
vt 0.275400 0.628028
vt 0.266627 0.433037
vt 0.271306 0.537032
vt 0.294906 0.538589
vt 0.318506 0.540147
vt 0.928840 0.468460
vt 0.705644 0.555011
vt 0.460105 0.549489
vt 0.365705 0.543261
vt 0.054862 0.542423
vt 0.273646 0.589030
vt 0.298265 0.591038
vt 0.322884 0.593045
vt 0.917624 0.578210
vt 0.702843 0.606675
vt 0.470600 0.605091
vt 0.372123 0.597060
vt 0.056123 0.596252
vt 0.274815 0.615029
vt 0.299944 0.617262
vt 0.325073 0.619495
vt 0.912017 0.633085
vt 0.701443 0.632507
vt 0.475847 0.632892
vt 0.375331 0.623960
vt 0.056754 0.623167
vt 0.909213 0.660522
vt 0.264983 0.972587
vt 0.239138 0.968035
vt 0.867066 0.954017
vt 0.656261 0.915785
vt 0.420054 0.999902
vt 0.213293 0.963482
vt 0.316673 0.981692
vt 0.000098 0.917874
vt 0.867066 0.954017
vt 0.656261 0.915785
vt 0.239138 0.968035
vt 0.213293 0.963482
vt 0.264983 0.972587
vt 0.420054 0.999902
vt 0.316673 0.981692
vt 0.000098 0.917874
vt 0.288943 0.000950
vt 0.308269 0.000831
vt 0.269616 0.001069
vt 0.346922 0.000594
vt 0.735804 0.016930
vt 0.052219 0.000098
vt 0.955773 0.029118
vt 0.955773 0.029118
vt 0.424228 0.000119
vt 0.867066 0.954017
vt 0.867066 0.954017
vt 0.907811 0.674241
vt 0.909213 0.660522
vt 0.907811 0.674241
vt 0.928840 0.468460
vt 0.917624 0.578210
vt 0.943331 0.248883
vt 0.912017 0.633085
vt 0.906409 0.687959
vt 0.867066 0.954017
vt 0.955773 0.029118
vt 0.955773 0.029118
vt 0.867066 0.954017
vn 0.0000 -0.9644 0.2644
vn 0.0333 -0.9571 0.2879
vn 0.4150 -0.8746 0.2507
vn -0.0343 -0.9638 0.2644
vn 0.0000 -0.9866 0.1632
vn 0.0980 -0.9499 0.2967
vn 0.4022 -0.8627 0.3067
vn -0.0345 -0.9860 0.1631
vn 0.1886 -0.7238 -0.6638
vn 0.0171 -0.7570 -0.6532
vn 0.1626 -0.7369 -0.6562
vn -0.0020 -0.7374 -0.6754
vn 0.0201 -0.2450 -0.9693
vn 0.0544 -0.8902 -0.4523
vn 0.1917 -0.8919 -0.4095
vn -0.0003 -0.8796 -0.4757
vn 0.0680 -0.8879 -0.4550
vn 0.0513 -0.7549 -0.6538
vn 0.0981 -0.9537 0.2844
vn 0.0332 -0.9592 0.2809
vn 0.0331 -0.9612 0.2740
vn 0.0983 -0.9573 0.2720
vn 0.0545 -0.7437 -0.6663
vn 0.0561 -0.8902 -0.4521
vn 0.0250 -0.8883 -0.4587
vn 0.0114 -0.7530 -0.6579
vn 0.0985 -0.9620 0.2547
vn 0.0329 -0.9639 0.2642
vn 0.1915 -0.8949 0.4031
vn 0.1934 -0.9117 0.3624
vn 0.1945 -0.9229 0.3323
vn 0.2867 -0.9387 0.1913
vn 0.1954 -0.9333 0.3013
vn 0.0948 -0.9822 0.1625
vn 0.1202 -0.9640 0.2372
vn 0.1204 -0.9725 0.1992
vn 0.1204 -0.9778 0.1717
vn -0.0340 -0.9994 0.0019
vn 0.2757 -0.9606 0.0359
vn 0.1203 -0.9823 0.1439
vn 0.2280 -0.9736 0.0018
vn 0.0733 -0.9870 -0.1429
vn 0.0726 -0.9829 -0.1694
vn 0.0720 -0.9788 -0.1916
vn -0.0302 -0.9417 -0.3351
vn 0.2376 -0.9251 -0.2962
vn 0.0713 -0.9741 -0.2147
vn 0.2404 -0.9145 -0.3254
vn 0.0333 -0.8944 -0.4461
vn 0.0360 -0.8921 -0.4504
vn 0.0343 -0.8906 -0.4535
vn -0.0270 -0.8737 -0.4858
vn 0.2085 -0.8622 -0.4618
vn 0.0345 -0.8967 -0.4412
vn 0.2295 -0.8506 -0.4730
vn -0.0060 0.0789 -0.9969
vn -0.0052 0.0817 -0.9966
vn -0.2248 -0.2460 -0.9428
vn -0.0881 -0.0465 -0.9950
vn -0.0024 0.0849 -0.9964
vn -0.0048 0.0783 -0.9969
vn 0.2859 0.0454 -0.9572
vn -0.0695 0.5157 -0.8539
vn 0.0000 0.4924 -0.8704
vn 0.0000 0.4853 -0.8743
vn 0.0000 0.4828 -0.8757
vn -0.2293 0.5794 -0.7822
vn -0.0478 0.2798 -0.9589
vn -0.0007 0.6720 0.7405
vn -0.2040 0.5614 0.8020
vn 0.0000 0.6720 0.7405
vn 0.0187 0.6730 0.7394
vn 0.0000 0.0000 1.0000
vn 0.7170 0.6092 0.3387
vn -0.0541 0.4745 0.8786
vn -0.9936 -0.1123 -0.0112
vn -0.4714 -0.5579 0.6830
vn -0.0857 -0.7245 -0.6839
vn 0.0979 -0.9488 0.3002
vn 0.4058 -0.8818 0.2403
vn 0.0943 -0.9624 0.2548
vn 0.1947 -0.9252 0.3257
vn 0.2869 -0.9451 0.1564
vn 0.1872 -0.7397 -0.6463
vn 0.0168 -0.7567 -0.6535
vn 0.1639 -0.7275 -0.6663
vn -0.0230 -0.7803 -0.6249
vn 0.3351 -0.8372 -0.4323
vn 0.0198 -0.9086 -0.4171
vn 0.2030 -0.8613 -0.4658
vn -0.2075 -0.4105 -0.8879
vn 0.0599 -0.8899 -0.4522
vn 0.0511 -0.7548 -0.6539
vn 0.1956 -0.9359 0.2931
vn 0.0981 -0.9538 0.2839
vn 0.0982 -0.9556 0.2777
vn 0.1958 -0.9396 0.2807
vn 0.0237 -0.7564 -0.6537
vn 0.0648 -0.8881 -0.4551
vn 0.0132 -0.8915 -0.4527
vn 0.0267 -0.7450 -0.6665
vn 0.1961 -0.9432 0.2683
vn 0.0983 -0.9574 0.2715
vn 0.1181 -0.9214 0.3703
vn 0.1188 -0.9320 0.3425
vn 0.1193 -0.9419 0.3140
vn 0.2775 -0.9478 0.1568
vn 0.1202 -0.9644 0.2357
vn 0.1736 -0.8979 0.4044
vn 0.0774 -0.9763 0.2020
vn 0.0774 -0.9814 0.1758
vn 0.0774 -0.9858 0.1492
vn 0.2678 -0.9635 0.0018
vn 0.0770 -0.9939 0.0786
vn 0.1789 -0.9554 0.2351
vn 0.0472 -0.9846 -0.1686
vn 0.0420 -0.9809 -0.1897
vn 0.0399 -0.9765 -0.2118
vn 0.2397 -0.9147 -0.3254
vn 0.0387 -0.9625 -0.2685
vn 0.2206 -0.9653 -0.1398
vn 0.0404 -0.8919 -0.4504
vn 0.0290 -0.8909 -0.4534
vn 0.0620 -0.8949 -0.4419
vn 0.2106 -0.8544 -0.4751
vn 0.0212 -0.8899 -0.4557
vn 0.2235 -0.8722 -0.4350
vn -0.0000 0.0855 -0.9963
vn -0.0022 0.0850 -0.9964
vn -0.3700 -0.0938 -0.9243
vn -0.0882 -0.0464 -0.9950
vn -0.0042 0.0832 -0.9965
vn 0.0000 0.0800 -0.9968
vn 0.1015 0.2473 -0.9636
vn -0.4084 0.1321 -0.9032
vn -0.0252 0.4977 -0.8670
vn -0.0125 0.4890 -0.8722
vn 0.0457 0.4687 -0.8822
vn -0.0001 0.4829 -0.8757
vn -0.1321 0.6587 0.7407
vn -0.1079 0.5780 0.8089
vn -0.6217 -0.1672 0.7652
vn -0.2335 -0.4174 -0.8782
vn -1.0000 0.0091 0.0011
vn 0.2867 0.0586 0.9562
vn 0.6583 0.5415 0.5229
usemtl Abdominal_Wall.000
s off
f 2/1/1 6/2/1 1/3/1
f 3/4/2 27/5/2 26/6/2
f 4/7/3 8/8/3 3/4/3
f 4/7/4 10/9/4 9/10/4
f 7/11/5 11/12/5 6/2/5
f 8/8/6 28/13/6 27/5/6
f 9/10/7 13/14/7 8/8/7
f 10/9/8 14/15/8 9/10/8
f 72/16/9 17/17/9 16/18/9
f 66/19/10 29/20/10 69/21/10
f 66/19/11 19/22/11 18/23/11
f 67/24/12 20/25/12 19/22/12
f 17/17/13 21/26/13 16/18/13
f 29/20/14 23/27/14 30/28/14
f 18/23/15 24/29/15 23/27/15
f 20/25/16 24/29/16 19/22/16
f 33/30/17 30/28/17 34/31/17
f 69/21/18 33/30/18 70/32/18
f 27/5/19 32/33/19 31/34/19
f 26/6/20 31/34/20 35/35/20
f 35/35/21 36/36/21 40/37/21
f 31/34/22 37/38/22 36/36/22
f 71/39/23 33/30/23 38/40/23
f 38/40/24 34/31/24 39/41/24
f 17/17/25 39/41/25 22/42/25
f 65/43/26 38/40/26 17/17/26
f 36/36/27 12/44/27 7/11/27
f 40/37/28 7/11/28 2/1/28
f 37/38/29 42/45/29 12/44/29
f 32/33/30 48/46/30 37/38/30
f 28/13/31 47/47/31 32/33/31
f 15/48/8 44/49/8 14/15/8
f 14/15/32 43/50/32 13/14/32
f 13/14/33 46/51/33 28/13/33
f 12/44/34 41/52/34 11/12/34
f 48/46/35 49/53/35 42/45/35
f 47/47/36 55/54/36 48/46/36
f 46/51/37 54/55/37 47/47/37
f 45/56/38 51/57/38 44/49/38
f 44/49/39 50/58/39 43/50/39
f 43/50/40 53/59/40 46/51/40
f 41/52/41 49/53/41 56/60/41
f 55/54/42 57/61/42 49/53/42
f 54/55/43 63/62/43 55/54/43
f 53/59/44 62/63/44 54/55/44
f 52/64/45 59/65/45 51/57/45
f 50/58/46 59/65/46 58/66/46
f 50/58/47 61/67/47 53/59/47
f 56/60/48 57/61/48 64/68/48
f 57/61/49 71/39/49 65/43/49
f 62/63/50 71/39/50 63/62/50
f 61/67/51 70/32/51 62/63/51
f 60/69/52 67/24/52 59/65/52
f 58/66/53 67/24/53 66/19/53
f 58/66/54 69/21/54 61/67/54
f 64/68/55 65/43/55 72/16/55
f 30/28/56 79/70/56 34/31/56
f 34/31/57 80/71/57 39/41/57
f 25/72/58 76/73/58 24/29/58
f 24/29/59 75/74/59 23/27/59
f 39/41/60 74/75/60 22/42/60
f 23/27/61 78/76/61 30/28/61
f 22/42/62 73/77/62 21/26/62
f 76/73/63 85/78/63 84/79/63
f 74/75/64 88/80/64 82/81/64
f 80/71/65 87/82/65 88/80/65
f 78/76/66 83/83/66 86/84/66
f 75/74/67 84/79/67 83/83/67
f 73/77/68 82/81/68 81/85/68
f 79/70/66 86/84/66 87/82/66
f 35/35/69 96/86/69 95/87/69
f 40/37/69 90/88/69 96/86/69
f 26/6/69 95/87/69 94/89/69
f 3/4/70 92/90/70 4/7/70
f 2/1/71 89/91/71 90/88/71
f 4/7/72 93/92/72 5/93/72
f 3/4/69 94/89/69 91/94/69
f 85/78/73 106/95/73 107/96/73
f 68/97/74 104/98/74 105/99/74
f 45/56/73 99/100/73 102/101/73
f 15/48/73 98/102/73 99/100/73
f 52/64/73 102/101/73 103/103/73
f 25/72/75 100/104/75 101/105/75
f 10/9/73 97/106/73 98/102/73
f 5/93/76 108/107/76 97/106/76
f 77/108/77 101/105/77 106/95/77
f 60/69/73 103/103/73 104/98/73
f 20/25/78 105/99/78 100/104/78
f 2/1/1 7/11/1 6/2/1
f 3/4/79 8/8/79 27/5/79
f 4/7/80 9/10/80 8/8/80
f 4/7/4 5/93/4 10/9/4
f 7/11/81 12/44/81 11/12/81
f 8/8/82 13/14/82 28/13/82
f 9/10/83 14/15/83 13/14/83
f 10/9/8 15/48/8 14/15/8
f 72/16/84 65/43/84 17/17/84
f 66/19/85 18/23/85 29/20/85
f 66/19/86 67/24/86 19/22/86
f 67/24/87 68/97/87 20/25/87
f 17/17/88 22/42/88 21/26/88
f 29/20/89 18/23/89 23/27/89
f 18/23/90 19/22/90 24/29/90
f 20/25/91 25/72/91 24/29/91
f 33/30/92 29/20/92 30/28/92
f 69/21/93 29/20/93 33/30/93
f 27/5/94 28/13/94 32/33/94
f 26/6/95 27/5/95 31/34/95
f 35/35/96 31/34/96 36/36/96
f 31/34/97 32/33/97 37/38/97
f 71/39/98 70/32/98 33/30/98
f 38/40/99 33/30/99 34/31/99
f 17/17/100 38/40/100 39/41/100
f 65/43/101 71/39/101 38/40/101
f 36/36/102 37/38/102 12/44/102
f 40/37/103 36/36/103 7/11/103
f 37/38/104 48/46/104 42/45/104
f 32/33/105 47/47/105 48/46/105
f 28/13/106 46/51/106 47/47/106
f 15/48/8 45/56/8 44/49/8
f 14/15/107 44/49/107 43/50/107
f 13/14/108 43/50/108 46/51/108
f 12/44/109 42/45/109 41/52/109
f 48/46/110 55/54/110 49/53/110
f 47/47/111 54/55/111 55/54/111
f 46/51/112 53/59/112 54/55/112
f 45/56/38 52/64/38 51/57/38
f 44/49/113 51/57/113 50/58/113
f 43/50/114 50/58/114 53/59/114
f 41/52/115 42/45/115 49/53/115
f 55/54/116 63/62/116 57/61/116
f 54/55/117 62/63/117 63/62/117
f 53/59/118 61/67/118 62/63/118
f 52/64/45 60/69/45 59/65/45
f 50/58/119 51/57/119 59/65/119
f 50/58/120 58/66/120 61/67/120
f 56/60/121 49/53/121 57/61/121
f 57/61/122 63/62/122 71/39/122
f 62/63/123 70/32/123 71/39/123
f 61/67/124 69/21/124 70/32/124
f 60/69/52 68/97/52 67/24/52
f 58/66/125 59/65/125 67/24/125
f 58/66/126 66/19/126 69/21/126
f 64/68/127 57/61/127 65/43/127
f 30/28/128 78/76/128 79/70/128
f 34/31/129 79/70/129 80/71/129
f 25/72/130 77/108/130 76/73/130
f 24/29/131 76/73/131 75/74/131
f 39/41/132 80/71/132 74/75/132
f 23/27/133 75/74/133 78/76/133
f 22/42/134 74/75/134 73/77/134
f 76/73/135 77/108/135 85/78/135
f 74/75/136 80/71/136 88/80/136
f 80/71/137 79/70/137 87/82/137
f 78/76/66 75/74/66 83/83/66
f 75/74/67 76/73/67 84/79/67
f 73/77/138 74/75/138 82/81/138
f 79/70/139 78/76/139 86/84/139
f 35/35/69 40/37/69 96/86/69
f 40/37/69 2/1/69 90/88/69
f 26/6/69 35/35/69 95/87/69
f 3/4/140 91/94/140 92/90/140
f 2/1/71 1/3/71 89/91/71
f 4/7/141 92/90/141 93/92/141
f 3/4/69 26/6/69 94/89/69
f 85/78/142 77/108/142 106/95/142
f 68/97/73 60/69/73 104/98/73
f 45/56/73 15/48/73 99/100/73
f 15/48/73 10/9/73 98/102/73
f 52/64/73 45/56/73 102/101/73
f 25/72/143 20/25/143 100/104/143
f 10/9/144 5/93/144 97/106/144
f 5/93/73 93/92/73 108/107/73
f 77/108/145 25/72/145 101/105/145
f 60/69/73 52/64/73 103/103/73
f 20/25/146 68/97/146 105/99/146
