####
#
# OBJ File Generated by Meshlab
#
####
# Object adrenal gland.obj
#
# Vertices: 82
# Faces: 142
#
####
vn 0.000000 0.000000 0.000000
v -0.572028 3.474973 4.162453
vn -0.524442 -0.847970 0.076857
v -2.855757 3.141935 4.152086
vn -0.450162 -0.360911 -0.816760
v -2.721305 3.201926 3.408864
vn 0.510723 0.768287 0.385872
v -1.917413 4.296446 4.632764
vn -0.133967 0.215085 -0.967363
v -2.462428 3.730106 3.555689
vn -0.189114 -0.928634 0.319179
v -2.411999 3.119542 4.662638
vn -0.457058 -0.349748 -0.817786
v -1.895403 2.933383 3.069393
vn -0.681355 -0.705165 0.196208
v -3.010295 3.437905 5.106009
vn -0.350778 -0.899649 0.259974
v -2.642593 3.107740 4.454498
vn -0.076241 -0.975005 0.208691
v -1.962432 2.865632 3.946825
vn -0.697347 -0.696156 0.170511
v -3.081048 3.406095 4.569024
vn -0.804207 -0.321738 -0.499736
v -3.570614 3.817068 3.691077
vn -0.164542 -0.961675 0.219335
v -2.258379 2.967542 4.268927
vn 0.783128 -0.198673 0.589270
v -1.382705 3.404139 4.622247
vn -0.380283 0.859869 0.340604
v -2.970810 4.455735 4.766399
vn -0.375144 -0.901787 0.214585
v -2.757424 3.298540 4.803044
vn 0.454959 -0.666972 0.590052
v -2.150113 3.407690 5.548813
vn 0.198436 -0.885531 0.420069
v -1.839238 3.053487 4.655451
vn -0.089813 -0.959376 0.267453
v -2.396538 3.249237 5.144535
vn 0.466577 0.867495 -0.172506
v -0.987509 4.170885 3.326899
vn 0.742116 -0.574998 0.344443
v -0.688863 2.915529 3.604080
vn -0.233700 0.791779 -0.564333
v -2.933150 4.804324 3.643750
vn -0.148393 0.868354 0.473224
v -2.811708 4.239055 5.832838
vn 0.362108 0.817318 -0.448184
v -1.875863 4.671541 3.636226
vn -0.573760 0.223811 -0.787850
v -1.094200 3.358457 2.904578
vn 0.702146 0.560441 0.439202
v -1.340267 4.042412 4.078125
vn -0.385050 0.258400 -0.885983
v -1.670425 3.723094 3.354772
vn -0.699702 0.667981 0.253415
v -3.464698 4.470689 4.138400
vn 0.533242 0.764972 0.361207
v -2.251034 4.136031 5.311102
vn 0.155018 0.922583 0.353284
v -2.459079 4.668139 4.233448
vn -0.279574 -0.893131 0.352356
v -2.850174 3.473313 5.855301
vn 0.812435 0.085263 0.576783
v -0.925272 3.441270 4.053408
vn 0.034192 -0.991819 0.122987
v -1.384215 2.761715 3.539084
vn -0.215175 -0.761523 -0.611378
v -1.283172 2.698420 2.861591
vn 0.796311 0.200510 0.570688
v -1.727734 3.735008 5.116292
vn 0.900165 0.284660 0.329653
v -0.711975 3.563229 3.420174
vn 0.529717 0.607356 -0.592046
v -0.630559 3.877608 2.794831
vn -0.910923 0.349517 0.219219
v -3.162839 4.069438 5.283658
vn -0.055871 0.046989 -0.997332
v -2.987424 4.138028 3.627410
vn -0.938529 -0.025621 0.344249
v -3.399332 3.985903 4.583838
vn 0.365097 -0.798159 0.479215
v -1.355604 2.952049 4.158253
vn 0.686719 -0.668527 -0.285462
v -0.687238 2.879037 2.972615
vn -0.059187 0.158337 -0.985610
v -2.402310 4.343824 3.622605
vn 0.618528 0.086014 0.781040
v -2.357984 3.835310 5.942235
vn -0.646749 -0.650550 -0.398121
v -3.189278 3.369866 3.723956
vn -0.044939 0.111654 0.992731
v -2.829970 3.869028 6.283609
vn -0.402400 -0.824916 -0.396974
v -2.289714 2.826875 3.474941
vn -0.000475 0.719319 -0.694680
v -1.541069 4.274441 3.404988
vn 0.248165 0.913464 0.322488
v -2.421170 4.401548 4.850039
vn 0.538192 0.789000 0.296359
v -1.758662 4.407333 4.111395
vn -0.313539 0.226512 -0.922163
v -2.093319 3.362514 3.361934
vn 0.778056 0.471168 0.415487
v -1.512161 3.933431 4.584949
vn -0.825400 -0.530832 0.192176
v -3.344501 3.656730 4.156800
vn -0.053103 0.961974 0.267929
v -2.727565 4.386943 5.293062
vn 0.967543 -0.032385 -0.250622
v -0.535416 3.384210 2.956171
vn -0.465247 0.532734 -0.706922
v -3.366748 4.504649 3.621112
vn -0.259729 0.932903 0.249465
v -2.976798 4.663812 4.147518
vn 0.134935 0.920720 -0.366153
v -2.426671 4.846700 3.747505
vn 0.775798 0.480972 0.408415
v -1.002588 3.853222 3.734911
vn -0.975972 0.047375 0.212685
v -3.155577 3.869845 5.753695
vn -0.426363 0.389351 -0.816468
v -1.242480 3.800014 3.098675
vn -0.376121 0.305823 -0.874646
v -1.547383 3.295473 3.117069
vn -0.230441 0.199091 -0.952502
v -1.989889 4.076503 3.515954
vn 0.450192 -0.724294 0.522231
v -1.897523 3.264065 5.105993
vn -0.061388 -0.213527 -0.975007
v -0.994348 2.988550 2.641057
vn -0.759717 -0.382878 0.525581
v -3.089280 3.675023 6.077650
vn 0.529890 0.811138 0.247531
v -1.225033 4.202613 3.670770
vn 0.768528 0.312586 0.558261
v -2.075256 3.844085 5.598057
vn -0.965125 0.177954 -0.192008
v -3.653925 4.232249 3.817887
vn 0.029475 0.129233 -0.991176
v -0.801775 3.533963 2.708053
vn 0.000000 0.000000 0.000000
v -2.457081 3.843886 4.318480
vn 0.000000 0.000000 0.000000
v -1.870137 3.568683 4.021596
vn 0.000000 0.000000 0.000000
v -2.751814 3.903803 4.835049
vn 0.000000 0.000000 0.000000
v -1.392133 3.331879 3.703686
vn 0.000000 0.000000 0.000000
v -2.004138 3.614949 4.612876
vn 0.000000 0.000000 0.000000
v -2.968358 4.090636 4.214531
vn -0.306402 -0.922574 0.234468
v -2.715063 3.369715 5.438732
vn -0.413130 -0.909998 0.035026
v -2.512372 2.977734 3.867070
vn -0.227425 0.109049 -0.967670
v -2.863542 3.581745 3.544993
vn 0.474467 0.802993 0.360672
v -2.527045 4.209234 5.572336
vn 0.000000 0.000000 0.000000
v -2.372685 3.459667 3.985300
vn 0.000000 0.000000 0.000000
v -2.090105 4.030160 4.015145
# 82 vertices, 0 vertices normals

f 25//25 62//62 61//61
f 2//2 3//3 78//78
f 3//3 5//5 51//51
f 6//6 9//9 13//13
f 2//2 9//9 11//11
f 8//8 11//11 16//16
f 2//2 11//11 53//53
f 10//10 13//13 78//78
f 6//6 13//13 18//18
f 8//8 16//16 77//77
f 6//6 16//16 9//9
f 14//14 18//18 41//41
f 17//17 19//19 64//64
f 6//6 18//18 64//64
f 9//9 16//16 11//11
f 16//16 19//19 77//77
f 14//14 26//26 52//52
f 4//4 30//30 49//49
f 15//15 28//28 40//40
f 10//10 33//33 41//41
f 21//21 33//33 42//42
f 17//17 35//35 68//68
f 4//4 29//29 35//35
f 21//21 32//32 41//41
f 32//32 36//36 59//59
f 12//12 39//39 79//79
f 23//23 38//38 60//60
f 15//15 38//38 54//54
f 5//5 39//39 43//43
f 25//25 34//34 62//62
f 12//12 45//45 53//53
f 21//21 41//41 33//33
f 3//3 45//45 79//79
f 2//2 45//45 3//3
f 4//4 49//49 29//29
f 23//23 44//44 80//80
f 27//27 48//48 61//61
f 29//29 49//49 54//54
f 14//14 52//52 35//35
f 4//4 50//50 30//30
f 12//12 53//53 69//69
f 28//28 56//56 69//69
f 23//23 54//54 38//38
f 12//12 56//56 39//39
f 15//15 54//54 49//49
f 31//31 60//60 77//77
f 46//46 60//60 66//66
f 21//21 55//55 36//36
f 27//27 63//63 48//48
f 5//5 63//63 51//51
f 17//17 64//64 35//35
f 28//28 57//57 56//56
f 24//24 63//63 43//43
f 14//14 64//64 18//18
f 26//26 67//67 50//50
f 17//17 68//68 44//44
f 12//12 69//69 56//56
f 44//44 68//68 80//80
f 10//10 78//78 47//47
f 23//23 80//80 54//54
f 12//12 79//79 45//45
f 17//17 77//77 19//19
f 8//8 77//77 60//60
f 10//10 18//18 13//13
f 6//6 19//19 16//16
f 15//15 30//30 57//57
f 24//24 30//30 50//50
f 17//17 31//31 77//77
f 26//26 32//32 59//59
f 14//14 32//32 26//26
f 7//7 33//33 47//47
f 7//7 34//34 33//33
f 33//33 34//34 42//42
f 4//4 35//35 52//52
f 14//14 35//35 64//64
f 21//21 36//36 32//32
f 20//20 36//36 37//37
f 20//20 37//37 61//61
f 8//8 38//38 40//40
f 22//22 39//39 56//56
f 8//8 40//40 11//11
f 11//11 40//40 53//53
f 15//15 40//40 38//38
f 10//10 41//41 18//18
f 14//14 41//41 32//32
f 21//21 42//42 55//55
f 5//5 43//43 63//63
f 24//24 43//43 58//58
f 31//31 44//44 46//46
f 22//22 43//43 39//39
f 17//17 44//44 31//31
f 23//23 46//46 44//44
f 31//31 46//46 66//66
f 7//7 47//47 51//51
f 10//10 47//47 33//33
f 3//3 47//47 78//78
f 20//20 48//48 67//67
f 24//24 48//48 63//63
f 15//15 49//49 30//30
f 26//26 50//50 52//52
f 24//24 50//50 48//48
f 48//48 50//50 67//67
f 27//27 51//51 63//63
f 7//7 51//51 62//62
f 4//4 52//52 50//50
f 3//3 51//51 47//47
f 2//2 53//53 45//45
f 29//29 54//54 80//80
f 37//37 55//55 70//70
f 36//36 55//55 37//37
f 22//22 56//56 57//57
f 22//22 57//57 58//58
f 15//15 57//57 28//28
f 22//22 58//58 43//43
f 24//24 58//58 30//30
f 30//30 58//58 57//57
f 20//20 59//59 36//36
f 26//26 59//59 67//67
f 23//23 60//60 46//46
f 8//8 60//60 38//38
f 25//25 61//61 70//70
f 27//27 61//61 62//62
f 20//20 61//61 48//48
f 7//7 62//62 34//34
f 27//27 62//62 51//51
f 6//6 64//64 19//19
f 55//55 65//65 70//70
f 42//42 65//65 55//55
f 34//34 65//65 42//42
f 25//25 65//65 34//34
f 31//31 66//66 60//60
f 20//20 67//67 59//59
f 29//29 68//68 35//35
f 40//40 69//69 53//53
f 28//28 69//69 40//40
f 25//25 70//70 65//65
f 37//37 70//70 61//61
f 2//2 78//78 9//9
f 9//9 78//78 13//13
f 5//5 79//79 39//39
f 3//3 79//79 5//5
f 29//29 80//80 68//68
# 142 faces, 0 coords texture

# End of File
