# Blender v2.79 (sub 0) OBJ File: 'Collective SH Model.blend'
# www.blender.org
mtllib Bladder.mtl
o Bladder_Sphere.027
v 5.516038 -0.361872 2.850912
v 5.474784 -0.610591 2.806549
v 5.430970 -0.835567 2.730704
v 5.342435 -1.180956 2.497327
v 5.263913 -1.345453 2.186309
v 5.207356 -1.304018 1.845000
v 5.181376 -1.062957 1.525361
v 5.189928 -0.658969 1.276054
v 5.206952 -0.414365 1.190228
v 5.231709 -0.153559 1.135035
v 5.457478 -0.321858 2.860860
v 5.359914 -0.532100 2.826064
v 5.264205 -0.721618 2.759036
v 5.092854 -1.010417 2.539728
v 4.969511 -1.144289 2.236324
v 4.912954 -1.102853 1.895015
v 4.931794 -0.892418 1.567762
v 5.023162 -0.545019 1.304386
v 5.092082 -0.335875 1.209743
v 5.173149 -0.113545 1.144984
v 5.413059 -0.247600 2.868437
v 5.272782 -0.386439 2.840926
v 5.137710 -0.510150 2.780613
v 4.903540 -0.693934 2.572020
v 4.746200 -0.770971 2.274415
v 4.689643 -0.729535 1.933106
v 4.742480 -0.575934 1.600054
v 4.896667 -0.333551 1.325963
v 5.004950 -0.190213 1.224606
v 5.128730 -0.039288 1.152560
v 5.226654 -0.195782 2.848873
v 5.070742 -0.233359 2.792150
v 4.803316 -0.279686 2.589287
v 4.627978 -0.282334 2.294782
v 4.571421 -0.240898 1.953474
v 4.642257 -0.161687 1.617321
v 4.829700 -0.056760 1.337500
v 4.958822 0.000444 1.232553
v 5.390511 -0.045066 2.872398
v 5.228552 0.010845 2.848695
v 5.073498 0.066617 2.791891
v 4.807440 0.169259 2.588899
v 4.632843 0.247233 2.294325
v 4.576286 0.288669 1.953016
v 4.646381 0.287258 1.616933
v 4.832455 0.243215 1.337241
v 4.960721 0.207070 1.232375
v 5.106182 0.163246 1.156521
v 5.415815 0.052376 2.868178
v 5.278188 0.201984 2.840418
v 5.145557 0.344109 2.779875
v 4.915285 0.584554 2.570916
v 4.760054 0.737107 2.273113
v 4.703497 0.778543 1.931804
v 4.754225 0.702554 1.598950
v 4.904515 0.520707 1.325226
v 5.010356 0.398210 1.224098
v 5.131486 0.260688 1.152302
v 5.461602 0.127088 2.860473
v 5.368003 0.348537 2.825304
v 5.275949 0.556870 2.757932
v 5.110430 0.902974 2.538076
v 4.990244 1.112710 2.234376
v 4.933687 1.154146 1.893067
v 4.949371 1.020973 1.566110
v 5.034907 0.733469 1.303282
v 5.100172 0.544763 1.208983
v 5.177273 0.335400 1.144596
v 5.520903 0.167696 2.850454
v 5.484326 0.428192 2.805652
v 5.444824 0.672511 2.729403
v 5.363169 1.076043 2.495378
v 5.288369 1.316859 2.184010
v 5.231812 1.358295 1.842701
v 5.202109 1.194043 1.523412
v 5.203781 0.849109 1.274753
v 5.216494 0.624418 1.189332
v 5.236574 0.376008 1.134578
v 5.584690 0.168017 2.839648
v 5.609447 0.428823 2.784455
v 5.626471 0.673427 2.698629
v 5.635023 1.077414 2.449323
v 5.609043 1.318475 2.129684
v 5.552486 1.359910 1.788375
v 5.473963 1.195412 1.477357
v 5.385428 0.850025 1.243979
v 5.341615 0.625048 1.168134
v 5.300360 0.376329 1.123772
v 5.643250 0.128003 2.829700
v 5.724317 0.350332 2.764940
v 5.793236 0.559476 2.670298
v 5.884605 0.906875 2.406921
v 5.903445 1.117311 2.079668
v 5.846889 1.158746 1.738359
v 5.723545 1.024874 1.434955
v 5.552194 0.736075 1.215648
v 5.456485 0.546558 1.148619
v 5.358921 0.336315 1.113823
v 5.687669 0.053745 2.822123
v 5.811449 0.204671 2.750078
v 5.919732 0.348009 2.648721
v 6.073918 0.590391 2.374630
v 6.126755 0.743993 2.041577
v 6.070199 0.785428 1.700268
v 5.912858 0.708391 1.402663
v 5.678689 0.524607 1.194070
v 5.543616 0.400896 1.133757
v 5.403339 0.262057 1.106246
v 5.263250 0.113425 1.112595
v 5.857576 0.014014 2.742130
v 5.986699 0.071218 2.637184
v 6.174142 0.176144 2.357363
v 6.244977 0.255355 2.021210
v 6.188421 0.296791 1.679901
v 6.013082 0.294144 1.385397
v 5.745656 0.247816 1.182534
v 5.589744 0.210239 1.125810
v 5.710217 -0.148788 2.818162
v 5.855678 -0.192613 2.742309
v 5.983943 -0.228758 2.637443
v 6.170018 -0.272801 2.357750
v 6.240112 -0.274212 2.021667
v 6.183556 -0.232776 1.680358
v 6.008958 -0.154801 1.385785
v 5.742901 -0.052159 1.182792
v 5.587846 0.003613 1.125988
v 5.425888 0.059524 1.102286
v 5.684913 -0.246230 2.822382
v 5.806043 -0.383752 2.750586
v 5.911884 -0.506249 2.649458
v 6.062173 -0.688096 2.375734
v 6.112901 -0.764086 2.042879
v 6.056345 -0.722650 1.701570
v 5.901114 -0.570096 1.403767
v 5.670841 -0.329651 1.194808
v 5.538211 -0.187526 1.134265
v 5.400584 -0.037918 1.106505
v 5.639125 -0.320942 2.830087
v 5.716228 -0.530305 2.765700
v 5.781492 -0.719011 2.671402
v 5.867027 -1.006516 2.408573
v 5.882711 -1.139688 2.081617
v 5.826155 -1.098252 1.740308
v 5.705968 -0.888516 1.436607
v 5.540449 -0.542412 1.216751
v 5.448395 -0.334079 1.149380
v 5.354796 -0.112630 1.114211
v 5.553149 -0.098968 2.862088
v 5.579824 -0.361550 2.840105
v 5.599904 -0.609960 2.785352
v 5.612617 -0.834652 2.699931
v 5.614289 -1.179585 2.451272
v 5.584586 -1.343837 2.131983
v 5.528029 -1.302400 1.790674
v 5.453230 -1.061586 1.479305
v 5.371575 -0.658053 1.245281
v 5.332072 -0.413734 1.169032
v 5.295496 -0.153238 1.124229
vn -0.9215 -0.3760 -0.0969
vn -0.6481 -0.5082 -0.5672
vn -0.7252 -0.6618 -0.1899
vn -0.3326 0.7395 -0.5853
vn -0.0006 0.4628 -0.8864
vn -0.2950 0.4640 -0.8353
vn 0.2833 0.4189 0.8627
vn 0.6481 0.5082 0.5672
vn 0.3241 0.6604 0.6774
vn -0.7427 -0.1013 0.6619
vn -0.4059 -0.2231 0.8862
vn -0.4744 -0.0721 0.8773
vn -0.8308 -0.3036 -0.4664
vn -0.5098 -0.3353 -0.7922
vn -0.0728 0.2727 -0.9593
vn -0.2498 0.2738 -0.9288
vn -0.3241 -0.6604 -0.6774
vn 0.2100 -0.8955 -0.3923
vn -0.3230 -0.8960 -0.3046
vn 0.3066 -0.9440 0.1214
vn -0.2455 -0.9453 0.2146
vn -0.6214 0.6663 0.4121
vn -0.0886 0.6616 0.7445
vn -0.2100 0.8955 0.3923
vn 0.7290 -0.1093 -0.6757
vn 0.9359 0.1175 -0.3322
vn 0.9244 -0.1314 -0.3579
vn -0.0123 -0.4206 -0.9071
vn -0.2430 -0.2545 -0.9360
vn -0.0760 -0.2558 -0.9637
vn -0.0729 0.2116 0.9746
vn -0.3831 0.2185 0.8975
vn -0.1797 0.1385 0.9739
vn -0.7185 0.6940 -0.0449
vn 0.3326 -0.7395 0.5853
vn 0.0006 -0.4628 0.8864
vn -0.1167 -0.7396 0.6629
vn 0.9909 -0.1342 0.0099
vn 0.8482 -0.3347 0.4105
vn 0.9171 -0.3985 0.0098
vn -0.8687 -0.3867 0.3096
vn -0.6672 -0.6909 0.2783
vn -0.5394 -0.0412 -0.8410
vn -0.3681 0.0198 -0.9296
vn -0.3439 -0.0588 -0.9371
vn -0.4754 -0.5565 0.6814
vn -0.2496 -0.3643 0.8972
vn 0.0123 0.4206 0.9071
vn -0.4272 0.5145 0.7434
vn -0.2232 0.3411 0.9131
vn -0.4658 0.0774 0.8815
vn 0.3230 0.8960 0.3046
vn 0.2232 -0.3411 -0.9131
vn 0.0729 -0.2116 -0.9746
vn 0.6214 -0.6663 -0.4121
vn 0.8356 -0.3885 -0.3884
vn -0.8482 0.3347 -0.4105
vn -0.9909 0.1342 -0.0099
vn -0.9171 0.3985 -0.0098
vn 0.6695 0.3239 -0.6685
vn 0.2496 0.3643 -0.8972
vn 0.4754 0.5565 -0.6814
vn -0.3883 -0.2076 -0.8978
vn -0.2032 -0.1077 -0.9732
vn 0.3432 -0.0735 0.9363
vn 0.5454 -0.0530 0.8365
vn 0.3681 -0.0198 0.9295
vn -0.9359 -0.1175 0.3322
vn -0.9927 -0.1145 -0.0384
vn 0.0886 -0.6616 -0.7445
vn 0.2498 -0.2738 0.9288
vn 0.5315 -0.3691 0.7624
vn 0.3996 -0.2241 0.8889
vn 0.9167 -0.1158 0.3825
vn 0.7291 0.0662 0.6811
vn 0.7353 -0.0830 0.6725
vn 0.0728 -0.2727 0.9593
vn 0.1272 0.1081 0.9860
vn 0.0478 0.1081 0.9930
vn -0.2363 0.0495 0.9704
vn -0.2369 -0.0449 0.9705
vn -0.7290 0.1093 0.6757
vn 0.6737 -0.2318 0.7017
vn -0.6713 0.5608 -0.4845
vn 0.2869 0.1068 0.9520
vn 0.4894 0.1322 0.8619
vn 0.3883 0.2076 0.8978
vn 0.0389 -0.1118 0.9930
vn -0.1892 -0.1392 0.9720
vn -0.0831 -0.2205 0.9718
vn -0.1272 -0.1081 -0.9860
vn -0.0529 -0.1065 -0.9929
vn -0.8356 0.3885 0.3884
vn -0.9244 0.1314 0.3579
vn 0.2851 -0.1130 0.9518
vn 0.1670 -0.0012 0.9859
vn 0.1235 -0.1364 0.9829
vn 0.4272 -0.5145 -0.7434
vn 0.8687 0.3867 -0.3096
vn 0.7252 0.6618 0.1899
vn 0.9215 0.3760 0.0969
vn 0.6315 -0.3155 -0.7083
vn -0.4894 -0.1322 -0.8619
vn -0.7291 -0.0662 -0.6811
vn 0.4059 0.2231 -0.8862
vn 0.0831 0.2205 -0.9718
vn 0.6672 0.6909 -0.2783
vn 0.1167 0.7396 -0.6629
vn 0.2455 0.9453 -0.2146
vn -0.9167 0.1158 -0.3825
vn -0.6737 0.2318 -0.7017
vn -0.7353 0.0830 -0.6725
vn 0.3831 -0.2185 -0.8975
vn 0.1797 -0.1385 -0.9739
vn -0.2833 -0.4189 -0.8627
vn -0.9107 -0.0944 -0.4021
vn -0.6695 -0.3239 0.6685
vn 0.9927 0.1145 0.0384
vn 0.6565 0.2092 0.7247
vn 0.5098 0.3353 0.7922
vn -0.1270 0.1140 -0.9853
vn -0.2060 0.1143 -0.9718
vn 0.6713 -0.5608 0.4845
vn 0.7185 -0.6940 0.0449
vn 0.5394 0.0412 0.8410
vn 0.3439 0.0588 0.9371
vn -0.5454 0.0530 -0.8365
vn -0.3432 0.0735 -0.9363
vn 0.4987 -0.1451 0.8545
vn 0.4744 0.0721 -0.8773
vn 0.2363 -0.0495 -0.9704
vn 0.2369 0.0449 -0.9705
vn 0.1892 0.1392 -0.9720
vn 0.7427 0.1013 -0.6619
vn -0.0128 0.0704 0.9974
vn -0.3996 0.2241 -0.8889
vn -0.4987 0.1451 -0.8545
vn -0.1670 0.0012 -0.9859
vn 0.0190 0.0621 -0.9979
vn 0.0407 -0.0172 -0.9990
vn -0.0407 0.0172 0.9990
vn -0.0190 -0.0621 0.9979
vn -0.6565 -0.2092 -0.7247
vn -0.0503 0.1094 -0.9927
vn 0.4658 -0.0774 -0.8815
vn -0.5315 0.3691 -0.7624
vn -0.2762 -0.1045 -0.9554
vn 0.0128 -0.0704 -0.9974
vn -0.6315 0.3155 0.7083
vn 0.2057 0.1298 0.9699
vn 0.0760 0.2558 0.9637
vn 0.9107 0.0944 0.4021
vn 0.2950 -0.4640 0.8353
vn 0.2430 0.2545 0.9360
vn 0.8308 0.3036 0.4664
vn -0.3066 0.9440 -0.1214
vn -0.2801 0.1114 -0.9535
vn 0.2060 -0.1143 0.9718
usemtl MaterialBLD.001
s 1
f 26//1 17//2 16//3
f 75//4 86//5 76//6
f 81//7 92//8 82//9
f 33//10 23//11 32//12
f 27//13 18//14 17//2
f 76//6 87//15 77//16
f 7//17 154//18 6//19
f 6//19 153//20 5//21
f 63//22 72//23 73//24
f 124//25 114//26 123//27
f 156//28 9//29 157//30
f 60//31 51//32 50//33
f 73//24 64//34 63//22
f 152//35 3//36 4//37
f 122//38 131//39 132//40
f 25//41 16//3 15//42
f 38//43 48//44 30//45
f 14//46 3//36 13//47
f 71//48 62//49 61//50
f 41//51 33//10 32//12
f 73//24 82//9 83//52
f 145//53 157//30 146//54
f 132//40 143//55 133//56
f 55//57 44//58 54//59
f 105//60 96//61 95//62
f 19//63 10//64 9//29
f 128//65 119//66 118//67
f 34//68 26//1 25//41
f 35//69 27//13 26//1
f 155//70 143//55 154//18
f 150//71 140//72 139//73
f 121//74 111//75 120//76
f 2//77 13//47 3//36
f 69//78 60//31 59//79
f 40//80 32//12 31//81
f 51//32 42//82 41//51
f 130//83 121//74 120//76
f 65//84 54//59 64//34
f 89//85 100//86 90//87
f 11//88 22//89 12//90
f 146//54 158//91 147//92
f 53//93 44//58 43//94
f 138//95 148//96 1//97
f 41//51 50//33 51//32
f 144//98 133//56 143//55
f 104//99 93//100 103//101
f 145//53 134//102 144//98
f 29//103 37//104 38//43
f 133//56 122//38 132//40
f 106//105 97//106 96//61
f 94//107 85//108 84//109
f 45//110 56//111 46//112
f 135//113 146//54 136//114
f 18//14 9//29 8//115
f 45//110 37//104 36//116
f 34//68 24//117 33//10
f 156//28 144//98 155//70
f 114//26 103//101 113//118
f 15//42 4//37 14//46
f 90//87 101//119 91//120
f 77//16 88//121 78//122
f 132//40 141//123 142//124
f 53//93 62//49 63//22
f 118//67 110//125 99//126
f 47//127 58//128 48//44
f 1//97 12//90 2//77
f 129//129 120//76 119//66
f 116//130 126//131 117//132
f 81//7 72//23 71//48
f 107//133 116//130 117//132
f 115//134 106//105 105//60
f 59//79 50//33 49//135
f 56//111 67//136 57//137
f 109//138 108//139 127//140
f 25//41 14//46 24//117
f 96//61 87//15 86//5
f 16//3 7//17 6//19
f 39//141 31//81 21//142
f 82//9 93//100 83//52
f 157//30 10//64 158//91
f 36//116 28//143 27//13
f 107//133 98//144 97//106
f 97//106 88//121 87//15
f 115//134 125//145 116//130
f 113//118 123//27 114//26
f 65//84 76//6 66//146
f 20//147 109//138 147//92
f 126//131 137//148 127//140
f 100//86 111//75 101//119
f 52//149 43//94 42//82
f 79//150 70//151 69//78
f 112//152 101//119 111//75
f 79//150 59//79 148//96
f 34//68 42//82 43//94
f 151//153 141//123 140//72
f 63//22 54//59 53//93
f 114//26 105//60 104//99
f 79//150 90//87 80//154
f 103//101 92//8 102//155
f 136//114 147//92 137//148
f 49//135 39//141 148//96
f 125//145 136//114 126//131
f 152//35 142//124 141//123
f 102//155 113//118 103//101
f 61//50 52//149 51//32
f 131//39 140//72 141//123
f 154//18 142//124 153//20
f 138//95 129//129 128//65
f 15//42 6//19 5//21
f 110//125 120//76 111//75
f 134//102 123//27 133//56
f 150//71 1//97 2//77
f 28//143 19//63 18//14
f 85//108 74//156 84//109
f 80//154 91//120 81//7
f 71//48 80//154 81//7
f 24//117 13//47 23//11
f 91//120 102//155 92//8
f 46//112 38//43 37//104
f 83//52 74//156 73//24
f 12//90 23//11 13//47
f 104//99 95//62 94//107
f 122//38 112//152 121//74
f 109//138 30//45 48//44
f 43//94 35//69 34//68
f 83//52 94//107 84//109
f 66//146 77//16 67//136
f 8//115 155//70 7//17
f 98//144 109//138 68//157
f 89//85 148//96 99//126
f 49//135 40//80 39//141
f 44//58 36//116 35//69
f 22//89 32//12 23//11
f 2//77 151//153 150//71
f 67//136 78//122 68//157
f 29//103 20//147 19//63
f 46//112 57//137 47//127
f 149//158 139//73 138//95
f 117//132 126//131 127//140
f 57//137 68//157 58//128
f 75//4 64//34 74//156
f 139//73 130//83 129//129
f 70//151 61//50 60//31
f 17//2 8//115 7//17
f 55//57 66//146 56//111
f 95//62 86//5 85//108
f 135//113 124//25 134//102
f 4//37 153//20 152//35
f 26//1 27//13 17//2
f 75//4 85//108 86//5
f 81//7 91//120 92//8
f 33//10 24//117 23//11
f 27//13 28//143 18//14
f 76//6 86//5 87//15
f 7//17 155//70 154//18
f 6//19 154//18 153//20
f 63//22 62//49 72//23
f 124//25 115//134 114//26
f 156//28 8//115 9//29
f 60//31 61//50 51//32
f 73//24 74//156 64//34
f 152//35 151//153 3//36
f 122//38 121//74 131//39
f 25//41 26//1 16//3
f 30//45 29//103 38//43
f 38//43 47//127 48//44
f 14//46 4//37 3//36
f 71//48 72//23 62//49
f 41//51 42//82 33//10
f 73//24 72//23 82//9
f 145//53 156//28 157//30
f 132//40 142//124 143//55
f 55//57 45//110 44//58
f 105//60 106//105 96//61
f 19//63 20//147 10//64
f 128//65 129//129 119//66
f 34//68 35//69 26//1
f 35//69 36//116 27//13
f 155//70 144//98 143//55
f 150//71 151//153 140//72
f 121//74 112//152 111//75
f 2//77 12//90 13//47
f 69//78 70//151 60//31
f 40//80 41//51 32//12
f 51//32 52//149 42//82
f 130//83 131//39 121//74
f 65//84 55//57 54//59
f 89//85 99//126 100//86
f 11//88 21//142 22//89
f 146//54 157//30 158//91
f 53//93 54//59 44//58
f 1//97 149//158 138//95
f 138//95 128//65 148//96
f 41//51 40//80 50//33
f 144//98 134//102 133//56
f 104//99 94//107 93//100
f 145//53 135//113 134//102
f 29//103 28//143 37//104
f 133//56 123//27 122//38
f 106//105 107//133 97//106
f 94//107 95//62 85//108
f 45//110 55//57 56//111
f 135//113 145//53 146//54
f 18//14 19//63 9//29
f 45//110 46//112 37//104
f 34//68 25//41 24//117
f 156//28 145//53 144//98
f 114//26 104//99 103//101
f 15//42 5//21 4//37
f 90//87 100//86 101//119
f 77//16 87//15 88//121
f 132//40 131//39 141//123
f 53//93 52//149 62//49
f 100//86 99//126 110//125
f 118//67 119//66 110//125
f 47//127 57//137 58//128
f 1//97 11//88 12//90
f 129//129 130//83 120//76
f 116//130 125//145 126//131
f 81//7 82//9 72//23
f 107//133 106//105 116//130
f 115//134 116//130 106//105
f 59//79 60//31 50//33
f 56//111 66//146 67//136
f 127//140 137//148 109//138
f 147//92 109//138 137//148
f 25//41 15//42 14//46
f 96//61 97//106 87//15
f 16//3 17//2 7//17
f 22//89 21//142 31//81
f 39//141 40//80 31//81
f 82//9 92//8 93//100
f 157//30 9//29 10//64
f 36//116 37//104 28//143
f 107//133 108//139 98//144
f 97//106 98//144 88//121
f 115//134 124//25 125//145
f 113//118 122//38 123//27
f 65//84 75//4 76//6
f 147//92 158//91 20//147
f 10//64 20//147 158//91
f 30//45 109//138 20//147
f 126//131 136//114 137//148
f 100//86 110//125 111//75
f 52//149 53//93 43//94
f 79//150 80//154 70//151
f 112//152 102//155 101//119
f 79//150 69//78 59//79
f 34//68 33//10 42//82
f 151//153 152//35 141//123
f 63//22 64//34 54//59
f 114//26 115//134 105//60
f 79//150 89//85 90//87
f 103//101 93//100 92//8
f 136//114 146//54 147//92
f 1//97 148//96 11//88
f 59//79 49//135 148//96
f 39//141 21//142 148//96
f 11//88 148//96 21//142
f 125//145 135//113 136//114
f 152//35 153//20 142//124
f 102//155 112//152 113//118
f 61//50 62//49 52//149
f 131//39 130//83 140//72
f 154//18 143//55 142//124
f 138//95 139//73 129//129
f 15//42 16//3 6//19
f 110//125 119//66 120//76
f 134//102 124//25 123//27
f 150//71 149//158 1//97
f 28//143 29//103 19//63
f 85//108 75//4 74//156
f 80//154 90//87 91//120
f 71//48 70//151 80//154
f 24//117 14//46 13//47
f 91//120 101//119 102//155
f 46//112 47//127 38//43
f 83//52 84//109 74//156
f 12//90 22//89 23//11
f 104//99 105//60 95//62
f 122//38 113//118 112//152
f 48//44 58//128 109//138
f 68//157 109//138 58//128
f 43//94 44//58 35//69
f 83//52 93//100 94//107
f 66//146 76//6 77//16
f 8//115 156//28 155//70
f 68//157 78//122 98//144
f 88//121 98//144 78//122
f 108//139 109//138 98//144
f 118//67 99//126 148//96
f 89//85 79//150 148//96
f 148//96 128//65 118//67
f 49//135 50//33 40//80
f 44//58 45//110 36//116
f 22//89 31//81 32//12
f 2//77 3//36 151//153
f 67//136 77//16 78//122
f 29//103 30//45 20//147
f 46//112 56//111 57//137
f 149//158 150//71 139//73
f 127//140 108//139 117//132
f 107//133 117//132 108//139
f 57//137 67//136 68//157
f 75//4 65//84 64//34
f 139//73 140//72 130//83
f 70//151 71//48 61//50
f 17//2 18//14 8//115
f 55//57 65//84 66//146
f 95//62 96//61 86//5
f 135//113 125//145 124//25
f 4//37 5//21 153//20
