# Blender v2.79 (sub 0) OBJ File: 'cross_cholecystectomy - best.blend'
# www.blender.org
mtllib hepatic_artery.mtl
o hepatic_artery_CUBezierCurve.005
v 2.719826 2.497116 3.233927
v 2.792577 2.636449 3.338596
v 2.702785 2.763628 3.231709
v 2.630033 2.624295 3.127040
v 2.441517 2.479928 3.460080
v 2.518959 2.619552 3.560926
v 2.422896 2.746342 3.459150
v 2.345454 2.606718 3.358305
v 2.203878 2.462753 3.676533
v 2.286343 2.602743 3.772784
v 2.183482 2.729038 3.677227
v 2.101017 2.589048 3.580976
v 2.003758 2.445459 3.884021
v 2.091547 2.585913 3.974729
v 1.981373 2.711571 3.886786
v 1.893584 2.571117 3.796078
v 1.837976 2.427917 4.083291
v 1.931214 2.568952 4.167420
v 1.813431 2.693798 4.088663
v 1.720193 2.552763 4.004534
v 1.703326 2.409996 4.275105
v 1.801886 2.551745 4.351625
v 1.676541 2.675577 4.283680
v 1.577982 2.533828 4.207160
v 1.596585 2.391564 4.460247
v 1.700021 2.534160 4.528286
v 1.567608 2.656764 4.472635
v 1.464172 2.514168 4.404595
v 1.514518 2.372487 4.639541
v 1.622073 2.516044 4.698578
v 1.483547 2.637222 4.656286
v 1.375992 2.493665 4.597249
v 1.453894 2.352624 4.813858
v 1.564590 2.497209 4.863894
v 1.421268 2.616817 4.835347
v 1.310573 2.472231 4.785310
v 1.411512 2.331829 4.984101
v 1.524315 2.477439 5.025757
v 1.377653 2.595421 5.010496
v 1.264851 2.449810 4.968840
v 1.384209 2.309951 5.151187
v 1.498207 2.456501 5.185673
v 1.349546 2.572911 5.182400
v 1.235548 2.426360 5.147914
v 1.368856 2.286838 5.316020
v 1.483390 2.434160 5.345008
v 1.333755 2.549167 5.351738
v 1.219222 2.401844 5.322751
v 1.362347 2.262339 5.479477
v 1.477037 2.410191 5.504931
v 1.327068 2.524065 5.519215
v 1.212378 2.376212 5.493761
v 1.361579 2.236303 5.642406
v 1.476282 2.384383 5.666434
v 1.326267 2.497482 5.685567
v 1.211563 2.349401 5.661539
v 1.363438 2.208583 5.805629
v 1.478147 2.356542 5.830372
v 1.328144 2.469292 5.851554
v 1.213436 2.321333 5.826810
v 1.364797 2.179032 5.969954
v 1.479516 2.326485 5.997512
v 1.329511 2.439369 6.017951
v 1.214792 2.291916 5.990393
v 1.362506 2.147506 6.136177
v 1.477137 2.294046 6.168546
v 1.327195 2.407582 6.185546
v 1.212564 2.261042 6.153176
v 1.353397 2.113861 6.305085
v 1.467643 2.259083 6.344077
v 1.318045 2.373802 6.355132
v 1.203799 2.228580 6.316141
v 1.334283 2.077957 6.477454
v 1.447597 2.221484 6.524589
v 1.298929 2.337895 6.527519
v 1.185615 2.194367 6.480384
v 1.301968 2.039659 6.654041
v 1.413565 2.181182 6.710429
v 1.266722 2.299722 6.703531
v 1.155125 2.158199 6.647143
v 1.253258 1.998838 6.835586
v 1.362196 2.138149 6.901822
v 1.218299 2.259139 6.884014
v 1.109362 2.119828 6.817778
v 1.184968 1.955369 7.022810
v 1.290293 2.092386 7.098935
v 1.150525 2.215997 7.069825
v 1.045201 2.078979 6.993701
v 1.093933 1.909131 7.216431
v 1.194829 2.043900 7.301983
v 1.060247 2.170144 7.261832
v 0.959350 2.035375 7.176280
v 0.977003 1.860003 7.417171
v 1.072907 1.992671 7.511317
v 0.944292 2.121426 7.460895
v 0.848388 1.988757 7.366750
v 0.831048 1.807862 7.625766
v 0.921639 1.938629 7.727528
v 0.799471 2.069691 7.667864
v 0.708881 1.938925 7.566102
vt 0.075531 0.000930
vt 0.075350 0.068280
vt 0.040035 0.068222
vt 0.040309 0.000039
vt 0.110610 0.001340
vt 0.111329 0.068221
vt 0.145636 0.000039
vt 0.147129 0.067422
vt 0.004847 0.067934
vt 0.005031 0.000479
vt 0.075448 0.129662
vt 0.039649 0.129574
vt 0.112117 0.129582
vt 0.148578 0.128666
vt 0.004050 0.129078
vt 0.075462 0.185712
vt 0.039139 0.185560
vt 0.112946 0.185655
vt 0.150166 0.184558
vt 0.003063 0.184931
vt 0.075428 0.237096
vt 0.038570 0.236910
vt 0.113795 0.237074
vt 0.151852 0.235831
vt 0.001974 0.236207
vt 0.075386 0.284434
vt 0.038064 0.284292
vt 0.114612 0.284446
vt 0.153490 0.283214
vt 0.000892 0.283670
vt 0.075373 0.328294
vt 0.037879 0.328263
vt 0.115321 0.328224
vt 0.154755 0.327415
vt 0.000039 0.328150
vt 0.075481 0.369103
vt 0.037566 0.369168
vt 0.115133 0.368891
vt 0.155168 0.368879
vt 0.000352 0.369711
vt 0.075477 0.407226
vt 0.038084 0.407417
vt 0.115129 0.406947
vt 0.154600 0.407623
vt 0.001233 0.408249
vt 0.075659 0.443183
vt 0.038651 0.443521
vt 0.114880 0.442913
vt 0.153681 0.443839
vt 0.002217 0.444398
vt 0.075931 0.477574
vt 0.039223 0.478009
vt 0.114567 0.477297
vt 0.152679 0.478261
vt 0.003113 0.478803
vt 0.076262 0.510893
vt 0.039755 0.511380
vt 0.114274 0.510603
vt 0.151729 0.511476
vt 0.003835 0.512014
vt 0.076626 0.543544
vt 0.040212 0.544044
vt 0.114044 0.543245
vt 0.150918 0.543944
vt 0.004343 0.544476
vt 0.077004 0.575850
vt 0.040570 0.576336
vt 0.113903 0.575545
vt 0.150303 0.576022
vt 0.004617 0.576542
vt 0.077381 0.608078
vt 0.040816 0.608530
vt 0.113868 0.607772
vt 0.149919 0.608001
vt 0.004652 0.608501
vt 0.077747 0.640470
vt 0.040943 0.640877
vt 0.113945 0.640168
vt 0.149788 0.640144
vt 0.004452 0.640617
vt 0.078089 0.673278
vt 0.040952 0.673632
vt 0.114137 0.672991
vt 0.149920 0.672721
vt 0.004032 0.673161
vt 0.078396 0.706798
vt 0.040849 0.707090
vt 0.114436 0.706541
vt 0.150313 0.706047
vt 0.003417 0.706448
vt 0.078652 0.741392
vt 0.040649 0.741618
vt 0.114828 0.741187
vt 0.150956 0.740513
vt 0.002651 0.740868
vt 0.078841 0.777506
vt 0.040382 0.777673
vt 0.115277 0.777383
vt 0.151808 0.776614
vt 0.001801 0.776920
vt 0.078947 0.815664
vt 0.040105 0.815782
vt 0.115707 0.815661
vt 0.152772 0.814978
vt 0.001000 0.815220
vt 0.078941 0.856466
vt 0.039931 0.856392
vt 0.115930 0.856505
vt 0.153591 0.856388
vt 0.000583 0.856494
vt 0.078849 0.900245
vt 0.040169 0.899999
vt 0.115768 0.900317
vt 0.152956 0.900743
vt 0.001244 0.900736
vt 0.078627 0.947357
vt 0.040537 0.946958
vt 0.115383 0.947581
vt 0.152189 0.947857
vt 0.002362 0.947880
vt 0.077831 0.998513
vt 0.040783 0.997104
vt 0.115096 0.999961
vt 0.152346 0.998746
vt 0.003731 0.998688
vn 0.0595 -0.9982 -0.0026
vn 0.0615 -0.9981 -0.0061
vn -0.6498 -0.0462 -0.7587
vn -0.6283 -0.0450 -0.7766
vn 0.6281 0.0482 0.7766
vn 0.6495 0.0499 0.7587
vn -0.0737 0.9972 -0.0148
vn -0.0779 0.9969 -0.0130
vn 0.0663 -0.9977 -0.0130
vn -0.6941 -0.0491 -0.7182
vn 0.6937 0.0535 0.7182
vn -0.0864 0.9962 -0.0077
vn 0.0716 -0.9972 -0.0213
vn -0.7415 -0.0528 -0.6689
vn 0.7410 0.0581 0.6690
vn -0.0959 0.9954 -0.0005
vn 0.0774 -0.9965 -0.0312
vn -0.7904 -0.0576 -0.6098
vn 0.7898 0.0638 0.6100
vn -0.1062 0.9943 0.0091
vn 0.0836 -0.9956 -0.0428
vn -0.8387 -0.0637 -0.5408
vn 0.8380 0.0707 0.5411
vn -0.1168 0.9929 0.0215
vn 0.0900 -0.9944 -0.0560
vn -0.8835 -0.0711 -0.4629
vn 0.8827 0.0789 0.4633
vn -0.1267 0.9912 0.0368
vn 0.0966 -0.9928 -0.0707
vn -0.9219 -0.0797 -0.3792
vn 0.9209 0.0881 0.3797
vn -0.1350 0.9893 0.0548
vn 0.1030 -0.9909 -0.0864
vn -0.9516 -0.0894 -0.2940
vn 0.9506 0.0979 0.2945
vn -0.1410 0.9872 0.0746
vn 0.1092 -0.9887 -0.1027
vn -0.9720 -0.0993 -0.2128
vn 0.9710 0.1078 0.2134
vn -0.1441 0.9850 0.0949
vn 0.1149 -0.9862 -0.1191
vn -0.9840 -0.1090 -0.1410
vn 0.9829 0.1169 0.1418
vn -0.1445 0.9828 0.1146
vn 0.1200 -0.9836 -0.1348
vn -0.9896 -0.1174 -0.0829
vn 0.9886 0.1247 0.0837
vn -0.1427 0.9808 0.1327
vn 0.1247 -0.9809 -0.1491
vn -0.9914 -0.1241 -0.0414
vn 0.9905 0.1304 0.0422
vn -0.1394 0.9790 0.1484
vn 0.1290 -0.9784 -0.1617
vn -0.9915 -0.1284 -0.0179
vn 0.9908 0.1336 0.0187
vn -0.1354 0.9775 0.1615
vn 0.1331 -0.9760 -0.1719
vn -0.9914 -0.1298 -0.0130
vn 0.9909 0.1338 0.0137
vn -0.1312 0.9763 0.1720
vn 0.1372 -0.9741 -0.1795
vn -0.9914 -0.1280 -0.0263
vn 0.9910 0.1308 0.0269
vn -0.1270 0.9754 0.1799
vn 0.1412 -0.9727 -0.1842
vn -0.9908 -0.1227 -0.0573
vn 0.9905 0.1244 0.0577
vn -0.1233 0.9749 0.1854
vn 0.1448 -0.9718 -0.1860
vn -0.9880 -0.1139 -0.1045
vn 0.9879 0.1145 0.1047
vn -0.1199 0.9747 0.1888
vn 0.1476 -0.9716 -0.1848
vn -0.9809 -0.1018 -0.1655
vn 0.9810 0.1013 0.1655
vn -0.1171 0.9747 0.1901
vn 0.1492 -0.9721 -0.1810
vn -0.9676 -0.0868 -0.2370
vn 0.9678 0.0853 0.2369
vn -0.1147 0.9751 0.1896
vn 0.1490 -0.9732 -0.1752
vn -0.9466 -0.0697 -0.3149
vn 0.9468 0.0675 0.3145
vn -0.1126 0.9758 0.1874
vn 0.1469 -0.9747 -0.1682
vn -0.9175 -0.0516 -0.3943
vn 0.9179 0.0488 0.3938
vn -0.1108 0.9767 0.1838
vn 0.1431 -0.9765 -0.1609
vn -0.8815 -0.0335 -0.4710
vn 0.8819 0.0304 0.4704
vn -0.1090 0.9778 0.1791
vn 0.1378 -0.9784 -0.1538
vn -0.8404 -0.0164 -0.5416
vn 0.8409 0.0130 0.5410
vn -0.1070 0.9790 0.1736
vn 0.1344 -0.9794 -0.1508
vn -0.8183 -0.0081 -0.5746
vn 0.8188 0.0047 0.5741
vn -0.1064 0.9796 0.1704
usemtl blood
s 1
f 1/1/1 5/2/2 8/3/3 4/4/4
f 2/5/5 6/6/6 5/2/2 1/1/1
f 3/7/7 7/8/8 6/6/6 2/5/5
f 4/4/4 8/3/3 7/9/8 3/10/7
f 5/2/2 9/11/9 12/12/10 8/3/3
f 6/6/6 10/13/11 9/11/9 5/2/2
f 7/8/8 11/14/12 10/13/11 6/6/6
f 8/3/3 12/12/10 11/15/12 7/9/8
f 9/11/9 13/16/13 16/17/14 12/12/10
f 10/13/11 14/18/15 13/16/13 9/11/9
f 11/14/12 15/19/16 14/18/15 10/13/11
f 12/12/10 16/17/14 15/20/16 11/15/12
f 13/16/13 17/21/17 20/22/18 16/17/14
f 14/18/15 18/23/19 17/21/17 13/16/13
f 15/19/16 19/24/20 18/23/19 14/18/15
f 16/17/14 20/22/18 19/25/20 15/20/16
f 17/21/17 21/26/21 24/27/22 20/22/18
f 18/23/19 22/28/23 21/26/21 17/21/17
f 19/24/20 23/29/24 22/28/23 18/23/19
f 20/22/18 24/27/22 23/30/24 19/25/20
f 21/26/21 25/31/25 28/32/26 24/27/22
f 22/28/23 26/33/27 25/31/25 21/26/21
f 23/29/24 27/34/28 26/33/27 22/28/23
f 24/27/22 28/32/26 27/35/28 23/30/24
f 25/31/25 29/36/29 32/37/30 28/32/26
f 26/33/27 30/38/31 29/36/29 25/31/25
f 27/34/28 31/39/32 30/38/31 26/33/27
f 28/32/26 32/37/30 31/40/32 27/35/28
f 29/36/29 33/41/33 36/42/34 32/37/30
f 30/38/31 34/43/35 33/41/33 29/36/29
f 31/39/32 35/44/36 34/43/35 30/38/31
f 32/37/30 36/42/34 35/45/36 31/40/32
f 33/41/33 37/46/37 40/47/38 36/42/34
f 34/43/35 38/48/39 37/46/37 33/41/33
f 35/44/36 39/49/40 38/48/39 34/43/35
f 36/42/34 40/47/38 39/50/40 35/45/36
f 37/46/37 41/51/41 44/52/42 40/47/38
f 38/48/39 42/53/43 41/51/41 37/46/37
f 39/49/40 43/54/44 42/53/43 38/48/39
f 40/47/38 44/52/42 43/55/44 39/50/40
f 41/51/41 45/56/45 48/57/46 44/52/42
f 42/53/43 46/58/47 45/56/45 41/51/41
f 43/54/44 47/59/48 46/58/47 42/53/43
f 44/52/42 48/57/46 47/60/48 43/55/44
f 45/56/45 49/61/49 52/62/50 48/57/46
f 46/58/47 50/63/51 49/61/49 45/56/45
f 47/59/48 51/64/52 50/63/51 46/58/47
f 48/57/46 52/62/50 51/65/52 47/60/48
f 49/61/49 53/66/53 56/67/54 52/62/50
f 50/63/51 54/68/55 53/66/53 49/61/49
f 51/64/52 55/69/56 54/68/55 50/63/51
f 52/62/50 56/67/54 55/70/56 51/65/52
f 53/66/53 57/71/57 60/72/58 56/67/54
f 54/68/55 58/73/59 57/71/57 53/66/53
f 55/69/56 59/74/60 58/73/59 54/68/55
f 56/67/54 60/72/58 59/75/60 55/70/56
f 57/71/57 61/76/61 64/77/62 60/72/58
f 58/73/59 62/78/63 61/76/61 57/71/57
f 59/74/60 63/79/64 62/78/63 58/73/59
f 60/72/58 64/77/62 63/80/64 59/75/60
f 61/76/61 65/81/65 68/82/66 64/77/62
f 62/78/63 66/83/67 65/81/65 61/76/61
f 63/79/64 67/84/68 66/83/67 62/78/63
f 64/77/62 68/82/66 67/85/68 63/80/64
f 65/81/65 69/86/69 72/87/70 68/82/66
f 66/83/67 70/88/71 69/86/69 65/81/65
f 67/84/68 71/89/72 70/88/71 66/83/67
f 68/82/66 72/87/70 71/90/72 67/85/68
f 69/86/69 73/91/73 76/92/74 72/87/70
f 70/88/71 74/93/75 73/91/73 69/86/69
f 71/89/72 75/94/76 74/93/75 70/88/71
f 72/87/70 76/92/74 75/95/76 71/90/72
f 73/91/73 77/96/77 80/97/78 76/92/74
f 74/93/75 78/98/79 77/96/77 73/91/73
f 75/94/76 79/99/80 78/98/79 74/93/75
f 76/92/74 80/97/78 79/100/80 75/95/76
f 77/96/77 81/101/81 84/102/82 80/97/78
f 78/98/79 82/103/83 81/101/81 77/96/77
f 79/99/80 83/104/84 82/103/83 78/98/79
f 80/97/78 84/102/82 83/105/84 79/100/80
f 81/101/81 85/106/85 88/107/86 84/102/82
f 82/103/83 86/108/87 85/106/85 81/101/81
f 83/104/84 87/109/88 86/108/87 82/103/83
f 84/102/82 88/107/86 87/110/88 83/105/84
f 85/106/85 89/111/89 92/112/90 88/107/86
f 86/108/87 90/113/91 89/111/89 85/106/85
f 87/109/88 91/114/92 90/113/91 86/108/87
f 88/107/86 92/112/90 91/115/92 87/110/88
f 89/111/89 93/116/93 96/117/94 92/112/90
f 90/113/91 94/118/95 93/116/93 89/111/89
f 91/114/92 95/119/96 94/118/95 90/113/91
f 92/112/90 96/117/94 95/120/96 91/115/92
f 93/116/93 97/121/97 100/122/98 96/117/94
f 94/118/95 98/123/99 97/121/97 93/116/93
f 95/119/96 99/124/100 98/123/99 94/118/95
f 96/117/94 100/122/98 99/125/100 95/120/96
